<?xml version="1.0" standalone="no"?>
<!DOCTYPE svg PUBLIC "-//W3C//DTD SVG 20010904//EN"
 "http://www.w3.org/TR/2001/REC-SVG-20010904/DTD/svg10.dtd">
<svg version="1.0" xmlns="http://www.w3.org/2000/svg"
 width="480.000000pt" height="84.000000pt" viewBox="0 0 480.000000 84.000000"
 preserveAspectRatio="xMidYMid meet">
<metadata>
Created by potrace 1.16, written by Peter Selinger 2001-2019
</metadata>
<g transform="translate(0.000000,84.000000) scale(0.100000,-0.100000)"
fill="#000000" stroke="none">
<path d="M361 789 c-24 -10 -56 -29 -71 -42 -16 -12 -37 -29 -48 -37 -39 -30
-92 -152 -92 -212 0 -21 -4 -38 -9 -38 -5 0 -17 -7 -25 -16 -13 -12 -16 -40
-16 -143 0 -134 5 -151 46 -151 13 0 24 -8 27 -20 4 -17 14 -20 60 -20 41 0
56 4 61 16 3 9 6 92 6 185 0 158 -1 170 -21 190 l-21 21 24 54 c14 30 28 51
31 47 4 -3 7 -1 7 4 0 18 96 72 137 78 86 13 208 -59 239 -142 16 -40 16 -45
0 -61 -14 -16 -16 -46 -16 -205 l0 -187 60 0 c53 0 60 2 60 20 0 14 7 20 23
20 42 0 47 16 47 157 0 129 -1 134 -23 142 -18 7 -25 22 -36 82 -15 87 -44
141 -102 193 -68 62 -131 86 -224 85 -56 0 -93 -6 -124 -20z"/>
<path d="M1010 435 l0 -255 174 0 174 0 20 32 c11 18 23 48 27 66 l7 32 -126
0 -126 0 0 190 0 190 -75 0 -75 0 0 -255z"/>
<path d="M2720 680 c-12 -7 -15 -35 -15 -145 0 -110 3 -138 15 -145 8 -5 63
-10 123 -10 l107 0 0 -35 0 -35 -95 0 -94 0 -25 -42 c-13 -24 -27 -53 -31 -65
l-6 -23 188 0 c134 0 193 4 201 12 8 8 12 55 12 145 0 121 -2 133 -19 143 -11
5 -68 10 -126 10 l-106 0 3 33 3 32 98 5 98 5 24 44 c47 83 50 81 -157 81
-101 0 -190 -5 -198 -10z"/>
<path d="M3650 633 c1 -32 1 -146 1 -254 -1 -182 -2 -197 -19 -201 -17 -5 -82
-106 -82 -128 0 -15 223 -13 238 2 9 9 12 95 12 325 l0 313 -76 0 -75 0 1 -57z"/>
<path d="M4260 435 l0 -255 75 0 75 0 1 78 0 77 37 -77 37 -78 83 0 c97 0 95
-11 27 135 -42 91 -42 91 -23 116 23 30 88 129 88 135 0 3 -39 3 -87 2 l-87
-3 -35 -53 -36 -53 -3 115 -3 116 -74 0 -75 0 0 -255z"/>
<path d="M1505 514 c-14 -31 -25 -60 -25 -65 0 -5 46 -10 103 -12 l102 -3
-107 -2 c-133 -3 -138 -7 -138 -127 0 -128 -5 -125 211 -125 l179 0 0 178 c0
161 -2 181 -18 195 -15 14 -42 17 -150 17 l-132 0 -25 -56z"/>
<path d="M1884 556 c-17 -13 -19 -30 -22 -171 -4 -181 3 -205 62 -205 l34 0
-29 -52 c-49 -90 -53 -88 129 -88 141 0 161 2 175 18 15 16 17 50 17 265 l0
247 -173 0 c-134 0 -178 -3 -193 -14z"/>
<path d="M2280 397 c0 -233 -14 -217 194 -217 145 0 165 2 179 18 15 16 17 45
17 195 l0 177 -80 0 -80 0 0 -130 0 -130 -40 0 -40 0 0 130 0 130 -75 0 -75 0
0 -173z"/>
<path d="M3154 556 c-17 -13 -19 -30 -22 -171 -5 -215 -13 -205 167 -205 l138
0 32 60 c24 45 29 61 19 65 -7 3 -56 6 -108 8 l-95 3 111 2 c92 2 113 5 118
18 3 9 6 55 6 103 0 133 3 131 -189 131 -120 0 -162 -3 -177 -14z"/>
<path d="M3840 397 c0 -233 -14 -217 194 -217 145 0 165 2 179 18 15 16 17 45
17 195 l0 177 -75 0 -75 0 0 -130 0 -130 -40 0 -40 0 0 130 0 130 -80 0 -80 0
0 -173z"/>
<path d="M414 546 c-3 -9 -15 -16 -25 -16 -10 0 -19 -6 -19 -13 0 -8 -10 -13
-22 -13 -20 1 -23 -4 -23 -34 0 -30 3 -35 23 -34 12 0 22 -5 22 -11 0 -17 59
-57 76 -51 12 5 14 23 12 93 -3 74 -6 88 -21 91 -9 2 -20 -4 -23 -12z"/>
</g>
</svg>
